<?xml version="1.0" standalone="no"?>
<!DOCTYPE svg PUBLIC "-//W3C//DTD SVG 20010904//EN"
 "http://www.w3.org/TR/2001/REC-SVG-20010904/DTD/svg10.dtd">
<svg version="1.0" xmlns="http://www.w3.org/2000/svg"
 width="303.000000pt" height="243.000000pt" viewBox="0 0 303.000000 243.000000"
 preserveAspectRatio="xMidYMid meet">
<metadata>
Created by potrace 1.16, written by Peter Selinger 2001-2019
</metadata>
<g transform="translate(0.000000,243.000000) scale(0.100000,-0.100000)"
fill="#000000" stroke="none">
<path d="M1810 1655 c-22 -23 -59 -103 -60 -126 0 -17 73 -30 250 -44 41 -4
119 -14 173 -24 l97 -17 0 45 c0 75 -7 88 -58 105 -69 24 -124 21 -156 -9 -15
-14 -32 -39 -38 -55 -14 -42 -25 -37 -33 13 -8 51 -42 126 -58 128 -61 8 -100
2 -117 -16z"/>
<path d="M1157 1658 c-9 -7 -28 -44 -42 -83 -14 -38 -33 -81 -42 -94 -15 -23
-15 -24 13 -16 61 15 226 45 250 45 23 0 25 3 20 28 -14 58 -39 113 -46 101
-6 -8 -12 -5 -20 11 l-12 22 -34 -33 -34 -33 -11 32 c-12 35 -18 38 -42 20z"/>
<path d="M1259 682 c-26 -24 -32 -36 -32 -72 0 -36 6 -48 32 -72 42 -38 90
-38 132 0 25 23 32 36 33 71 1 36 -4 47 -32 72 -43 39 -90 39 -133 1z"/>
<path d="M1751 694 c-13 -9 -29 -32 -37 -50 -12 -29 -12 -39 0 -68 29 -70 102
-87 158 -37 27 24 33 36 33 71 0 35 -6 47 -33 71 -37 33 -84 38 -121 13z"/>
</g>
</svg>
