<?xml version="1.0" standalone="yes"?>
<svg xmlns="http://www.w3.org/2000/svg" width="750" height="750">
<path style="fill:#fffffe; stroke:none;" d="M0 0L0 750L750 750L750 0L0 0z"/>
<path style="fill:#f8d7ae; stroke:none;" d="M385 189C379.848 189.003 374.402 188.792 370.344 192.558C362.983 199.388 368.382 210.435 376 214L376 215C342.975 216.418 320.491 250.831 330 283C352.529 277.636 379.917 279.029 403 280.039C410.552 280.37 425.756 284.849 432.566 281.397C436.105 279.603 435 273.225 435 270C435 257.724 432.556 246.117 425.215 236C419.204 227.717 409.271 225.315 403 218C420.301 217.1 419.228 194.405 402 194C404.799 189.747 407.828 186.044 409.097 181C411.265 172.384 407.095 152.298 394.04 159.318C383.974 164.73 383.196 179.281 385 189M249 243L253 243L252 248L253 248C255.554 241.546 261.36 237.727 267 234L276 254C283.654 250.359 291.176 241.848 296 235L297 235L305 250L306 242L311 250C311.675 245.948 308.568 242.882 307.681 239C306.016 231.714 308.624 227.235 304.049 220.004C299.153 212.265 288.314 207.221 284.617 199.196C281.262 191.912 289.071 170.355 273.005 173.498C261.326 175.782 274.109 188.506 272.042 196C270.474 201.689 265.014 205.313 261.725 210.004C255.22 219.279 249.245 231.512 249 243M115 214L185 207C172.778 234.443 162.988 264.776 163 295C163.006 311.75 168.793 329.3 186 335.451C197.271 339.481 209.395 337.916 221 337C220.177 343.374 218.871 358.947 213.57 363.062C207.98 367.402 196.76 367.838 190 370L190 371L213 368L205.881 404L201.487 417.581L189 423L189 424L201 422L199 437L200 437L206.418 422.603L219 420L252 418L245 454C227.508 455.429 208.641 461.587 192 467L192 468L243 462L240 480L241 480L248.278 462.603L265 459.961L304 457L302 470L303 470L307 457L356 456C353.87 463.576 353.271 478.881 347.487 484.436C341.191 490.483 324.329 491.109 316 493.424C292.317 500.007 267.826 507.564 246 519L246 520C272.975 517.648 299.738 508.808 327 506.17C373.838 501.637 420.155 503.97 467 506.039C486.559 506.903 506.679 509.911 526 513.08C531.575 513.995 544.398 518.507 549.351 514.972C556.154 510.117 560.201 491.681 563.424 484C574.623 457.314 586.442 430.872 597.2 404C605.946 382.153 615.973 360.823 624.799 339C627 333.559 635.298 321.093 633.292 315.279C630.31 306.631 608.918 311.269 604.028 303.697C601.943 300.469 603 294.667 603 291C603 283.029 602.698 274.606 599.956 267.019C597.941 261.443 592.128 260.009 587 258.064C574.964 253.499 561.894 250.032 549 252.819C537.577 255.289 529.464 263.601 524.862 274C523.903 276.166 521.892 285.212 518.259 283.793C515.52 282.723 515.486 277.386 515.079 275C513.573 266.167 511.218 257.354 508 249L507 249C509.183 258.437 512.311 267.386 513.92 277C514.403 279.889 514.576 285.295 518.103 286.248C522.389 287.407 523.687 280.748 524.695 278C528.281 268.223 535.255 259.683 545 255.529C564.382 247.266 579.686 261.126 598 263L602 293L600.566 303.087L590 302.449L560 296.463L470 287.896L442 283C443.257 267.1 450.959 246.345 464.015 236.318C468.221 233.087 472.223 234.869 477 234.625C491.953 233.861 498.173 233.248 506 248L507 248C501.752 231.421 491.207 232.846 477 233.405C472.159 233.596 467.341 231.285 463.039 234.448C449.475 244.423 441.135 267.726 441 284L460 287L460 288C395.787 288 332.117 293.58 269 305.999C253.749 309 238.387 311.868 223 314C214.414 315.19 206.665 315.866 200.213 308.906C190.433 298.354 189.746 280.444 191.576 267C195.272 239.848 204.749 215.389 211 189L145 193.989L116.603 197.028L115 214M528 238C517.268 226.348 504.775 210.98 487 212.616C481.495 213.122 461.58 216.874 464.917 225.87C466.418 229.918 471.424 229.953 475 229.996C483.76 230.101 492.369 226.486 499.96 232.533C514.791 244.348 510.331 264.429 520 278C522.667 272.305 524.939 266.78 529.184 262.004C547.75 241.12 572.721 250.692 595 258C596.182 253.036 596.024 248.079 595.999 243C595.873 216.806 572.832 221.062 556 230.312C552.854 232.04 543.304 240.865 539.938 237.422C530.815 228.089 542.898 211.163 551 206.532C553.689 204.996 561.364 203.927 561.364 199.925C561.364 190.788 543.602 201.142 541.015 203.329C529.108 213.393 531.195 224.58 528 238M500 208L526 231C526.09 226.631 527.962 221.206 526.396 217.015C522.364 206.223 508.838 207.621 500 208M541 236L563 223.323L574 217C566.402 215.433 548.667 210.239 543.228 218.148C539.847 223.065 541 230.358 541 236z"/>
<path style="fill:#feadab; stroke:none;" d="M442 283L469 287.896L561 296.884L591 302.884L600.972 303.168L602 293L598 263C579.539 259.719 562.402 246.728 543 255.985C534.845 259.876 528.849 266.694 525.454 275C524.289 277.85 523.07 285.793 518.951 285.793C514.554 285.793 514.251 277.979 513.753 275C511.724 262.854 509.008 248.984 501.236 239.043C495.177 231.293 487.512 233.391 479 234.231C474.514 234.674 469.178 232.917 465.004 235.028C450.772 242.224 442.632 268.29 442 283z"/>
<path style="fill:#b9b8b9; stroke:none;" d="M265.667 234.333L266.333 234.667L265.667 234.333z"/>
<path style="fill:#d3b0d4; stroke:none;" d="M231 300L322 283C320.283 270.247 315.301 252.02 307 242L304 251L297 236L296 236L276 254C274.355 250.158 270.355 236.585 265.786 235.921C260.965 235.219 254.425 243.109 252.88 247.015C246.062 264.244 236.079 282.37 231 300z"/>
<path style="fill:#b9b8b9; stroke:none;" d="M296 235L297 236L296 235M295 236L296 237L295 236M297 236L298 237L297 236M294 237L295 238L294 237M298 237L299 238L298 237M260 238L261 239L260 238M259 239L260 240L259 239M256 241L257 242L256 241M270 242L271 243L270 242M300 242L301 243L300 242M306 242L307 243L306 242M287 244L288 245L287 244M305 246L305 249L306 249L305 246M272 247L273 248L272 247z"/>
<path style="fill:#f8d7ae; stroke:none;" d="M251 249L251 252L252 252L251 249z"/>
<path style="fill:#b9b8b9; stroke:none;" d="M282 249L283 250L282 249M304 250L305 251L304 250z"/>
<path style="fill:#f8d7ae; stroke:none;" d="M312.333 251.667L312.667 252.333L312.333 251.667M250 252L250 255L251 255L250 252z"/>
<path style="fill:#b9b8b9; stroke:none;" d="M278 252L279 253L278 252z"/>
<path style="fill:#f8d7ae; stroke:none;" d="M313.333 253.667L313.667 254.333L313.333 253.667M249.333 255.667L249.667 256.333L249.333 255.667M314.333 256.667L314.667 257.333L314.333 256.667M248 257L248 260L249 260L248 257M315.333 258.667L315.667 259.333L315.333 258.667M247 260L246 265L247 265L247 260M316.333 261.667L316.667 262.333L316.333 261.667M317.333 264.667L317.667 265.333L317.333 264.667M245 265L245 268L246 268L245 265M318 266L318 269L319 269L318 266M244.333 268.667L244.667 269.333L244.333 268.667M319 269L319 272L320 272L319 269M243 270L242 275L243 275L243 270M320 273L320 276L321 276L320 273M241.333 275.667L241.667 276.333L241.333 275.667M321 277L321 280L322 280L321 277M240.333 278.667L240.667 279.333L240.333 278.667M239.333 280.667L239.667 281.333L239.333 280.667M322 280L322 283L323 283L322 280M238.333 282.667L238.667 283.333L238.333 282.667M318 283L318 284L322 284L318 283M237.333 284.667L237.667 285.333L237.333 284.667M310 284L310 285L317 285L310 284M303 285L303 286L309 286L303 285M236.333 286.667L236.667 287.333L236.333 286.667M297 286L297 287L302 287L297 286M292 287L292 288L295 288L292 287M235.333 288.667L235.667 289.333L235.333 288.667M285 288L285 289L290 289L285 288M279 289L279 290L283 290L279 289M234.333 290.667L234.667 291.333L234.333 290.667M273 290L273 291L278 291L273 290M269 291L269 292L273 292L269 291M233.333 292.667L233.667 293.333L233.333 292.667M265 292L265 293L268 293L265 292M259 293L259 294L262 294L259 293M232.333 294.667L232.667 295.333L232.333 294.667M255 294L255 295L258 295L255 294M250 295L250 296L254 296L250 295M231 296L230 301L237 300L237 299L231 300L231 296M245 296L245 297L250 297L245 296M241 297L241 298L245 298L241 297M238 298L238 299L241 299L238 298z"/>
<path style="fill:#fffffe; stroke:none;" d="M344 343C353.843 343 376.297 345.592 384.57 339.972C390.242 336.119 391.947 318.367 392 312C383.229 312 360.748 309.472 353.727 315.024C348.27 319.339 345.542 336.336 344 343M409 340C420.245 341.488 431.678 341 443 341C446.608 341 452.427 342.071 455.581 339.972C461.054 336.33 462.734 320.109 463 314C452.894 313.999 442.016 313.74 432 312.424C428.058 311.907 420.781 310.644 417.56 313.603C412.304 318.433 410.413 333.173 409 340M282 350C292.898 349.97 304.199 347.861 315 346.424C318.51 345.958 323.552 346.485 326.436 344.062C331.579 339.741 332.723 322.432 333 316C322.981 316.007 312.909 317.855 303 319.271C299.571 319.761 294.435 319.441 291.699 321.858C286.06 326.84 283.651 342.798 282 350M480 342L513 344.576L526.411 344.307L533 323C523.375 318.362 510.489 318.97 500 317.715C496.587 317.306 490.528 315.48 487.513 317.773C482.833 321.334 480.288 336.377 480 342M227 360L254 355.424L263.836 352.411L269 326C260.749 326.355 242.814 328.036 236.51 333.728C231.135 338.58 228.602 353.075 227 360M555.728 327.042C553.575 328.631 553.105 332.618 552.33 335C551.344 338.031 548.096 344.353 550.118 347.4C552.658 351.23 576.905 354.325 580.362 351.382C583.32 348.863 589.617 336.217 586.356 332.857C583.182 329.586 574.315 329.264 570 328.4C566.48 327.694 558.929 324.679 555.728 327.042M327 397C337.721 397 348.304 395.176 359 394.997C362.54 394.938 369.479 395.264 372.062 392.397C375.367 388.731 375.512 380.642 376.735 376C377.687 372.381 382.126 362.985 379.879 359.603C377.064 355.368 363.223 358.428 359 358.83C353.74 359.331 343.966 356.899 339.51 360.028C336.738 361.974 336.005 366.985 335 370C332.104 378.691 328.228 387.924 327 397M393 392C403.801 395.193 417.752 393 429 393C432.736 393 439.275 394.231 442.49 391.972C446.052 389.469 446.546 381.92 447.526 378C448.484 374.17 452.629 365.153 449.958 361.603C447.357 358.148 436.954 360.095 433 359.576C426.558 358.73 408.982 356.043 403.563 360.028C397.381 364.574 395.341 384.679 393 392M266 406L302 400.424L315.411 397.976L318.65 388L324 360L293 360.996L278.703 363.013L269.745 388L266 406M224 367L207 417L254 408L262 364L261 363L224 367M464 393C474.825 396.2 489.653 395.813 501 396.003C504.386 396.06 510.488 398.103 513.146 395.393C518.31 390.127 519.536 375.092 521 368C509.741 365.909 498.367 364.916 487 363.83C483.259 363.473 477.045 361.52 473.702 364.028C468.124 368.212 465.535 386.305 464 393M535 400C541.584 399.576 551.811 403.871 557.736 401.382C563.768 398.848 567.63 382.777 570 377C564.271 374.567 549.326 369.723 543.303 371.913C537.529 374.013 533.704 394.815 535 400M312 442C322.51 444.277 338.251 440.987 349 439.576C352.223 439.152 357.721 439.877 360.157 437.397C364.925 432.541 366.713 417.578 367 411C355.625 411 344.314 410.754 333 411.83C329.854 412.13 325.238 411.112 322.51 413.028C316.695 417.111 313.84 435.26 312 442M380 438L406 438C411.886 438 426.523 440.666 431.272 436.972C434.165 434.722 434.54 428.334 435.373 425C436.083 422.16 439.119 415.385 436.357 413.028C432.879 410.059 423.36 412.245 419 411.83C411.712 411.137 394.778 407.731 388.43 412.028C383.39 415.439 380.58 432.18 380 438M250 452C263.552 451.72 277.553 447.65 291 445.729C295.274 445.118 303.156 445.643 306.4 442.4C311.605 437.199 312.852 419.11 313 412C300.396 413.593 287.605 412.916 275 414.576C271.086 415.091 264.946 414.271 261.728 416.988C254.675 422.942 252.778 443.312 250 452M451 439C462.167 439.031 473.92 439.968 485 441.424C488.878 441.934 497.141 444.166 500.57 441.958C505.696 438.657 506.884 423.585 507 418C495.424 417.761 483.535 415.946 472 414.83C468.144 414.457 462 412.554 458.513 415.028C453.712 418.434 451.487 433.411 451 439M527 421L520 446C525.141 446.106 533 449.334 537.786 447.382C543.636 444.996 547.178 430.591 549 425L527 421M367 481C378.068 483.391 392.614 477.87 404 477.09C409.018 476.746 415.95 477.746 420.581 475.4C424.053 473.642 427.383 461.826 424.958 458.603C422.797 455.732 416.111 457.062 413 456.985C403.66 456.757 394.396 456 385 456C382.037 456 377.232 455.13 374.702 457.028C369.74 460.749 368.21 475.155 367 481M440 475L478 476.961L491.49 476.968L496 466L459 460.285L445.303 460.042L440 475M510 481C521.222 481.893 524.453 483.719 529 472C518.001 466.48 510.601 467.839 510 481z"/>
<path style="fill:#f8d7ae; stroke:none;" d="M293 535L293 536L318 531C309.964 527.628 300.09 530.878 293 535M449 531L449 532L459 531L449 531z"/>
<path style="fill:#b9b8b9; stroke:none;" d="M459 530.594C428.028 531.713 415.793 572.971 444 588.651C449.999 591.986 456.279 592.289 463 591.96C500.675 590.114 496.596 529.235 459 530.594z"/>
<path style="fill:#f8d7ae; stroke:none;" d="M461 530L461 531L466 531L461 530z"/>
<path style="fill:#b9b8b9; stroke:none;" d="M303 531.529C264.259 540.42 279.483 599.326 318 591.621C357.773 583.665 342.806 522.394 303 531.529z"/>
<path style="fill:#f8d7ae; stroke:none;" d="M319.667 531.333L320.333 531.667L319.667 531.333M467.667 531.333L468.333 531.667L467.667 531.333M322.667 532.333L323.333 532.667L322.667 532.333M446.667 532.333L447.333 532.667L446.667 532.333M470.667 532.333L471.333 532.667L470.667 532.333M324.667 533.333L325.333 533.667L324.667 533.333M444 533L445 534L444 533M472.667 533.333L473.333 533.667L472.667 533.333M326.667 534.333L327.333 534.667L326.667 534.333M442.667 534.333L443.333 534.667L442.667 534.333M474.667 534.333L475.333 534.667L474.667 534.333M328 535L329 536L328 535M441 535L442 536L441 535M476 535L477 536L476 535M291 536L292 537L291 536M330 536L331 537L330 536M439 536L440 537L439 536M478 536L478 538L480 538L478 536M290 537L291 538L290 537M331 537L332 538L331 537M438 537L439 538L438 537M289 538L290 539L289 538M332 538L333 539L332 538M437 538L438 539L437 538M480 538L481 539L480 538M288 539L289 540L288 539M333 539L334 540L333 539M436 539L437 540L436 539M481 539L482 540L481 539M287 540L288 541L287 540M334 540L335 541L334 540M435 540L436 541L435 540M482 540L483 541L482 540M286 541L287 542L286 541M335 541L336 542L335 541M434 541L435 542L434 541M483 541L484 542L483 541M285.333 542.667L285.667 543.333L285.333 542.667M433.333 542.667L433.667 543.333L433.333 542.667M336 543L337 544L336 543M484 543L485 544L484 543M284 544L285 545L284 544M337 544L338 545L337 544M432 544L433 545L432 544M485 544L486 545L485 544M283.333 545.667L283.667 546.333L283.333 545.667M338 546L339 547L338 546M431 546L432 547L431 546M486 546L487 547L486 546M282.333 547.667L282.667 548.333L282.333 547.667M430.333 547.667L430.667 548.333L430.333 547.667M487.333 547.667L487.667 548.333L487.333 547.667M339 548L340 549L339 548M281 549L281 552L282 552L281 549M340.333 550.667L340.667 551.333L340.333 550.667M429.333 550.667L429.667 551.333L429.333 550.667M488.333 550.667L488.667 551.333L488.333 550.667M280 552L280 556L281 556L280 552M341 553L341 557L342 557L341 553M428.333 553.667L428.667 554.333L428.333 553.667M489 553L489 556L490 556L489 553M279 557L279 566L280 566L279 557M427 557L427 565L428 565L427 557M490 558L490 564L491 564L490 558M342 559L342 563L343 563L342 559M341 566L341 570L342 570L341 566M280 567L280 570L281 570L280 567M489 567L489 570L490 570L489 567M428.333 568.667L428.667 569.333L428.333 568.667M281.333 571.667L281.667 572.333L281.333 571.667M340.333 571.667L340.667 572.333L340.333 571.667M429.333 571.667L429.667 572.333L429.333 571.667M488.333 571.667L488.667 572.333L488.333 571.667M339.333 573.667L339.667 574.333L339.333 573.667M282.333 574.667L282.667 575.333L282.333 574.667M430 574L431 575L430 574M487 574L488 575L487 574M283.333 576.667L283.667 577.333L283.333 576.667M338 576L339 577L338 576M431 576L432 577L431 576M486 576L487 577L486 576M337.333 577.667L337.667 578.333L337.333 577.667M432.333 577.667L432.667 578.333L432.333 577.667M485.333 577.667L485.667 578.333L485.333 577.667M284 578L285 579L284 578M285 579L286 580L285 579M336 579L337 580L336 579M433 579L434 580L433 579M484 579L485 580L484 579M286.333 580.667L286.667 581.333L286.333 580.667M335 580L336 581L335 580M483 580L484 581L483 580M334.333 581.667L334.667 582.333L334.333 581.667M434 581L435 582L434 581M287 582L288 583L287 582M435 582L436 583L435 582M482 582L483 583L482 582M288 583L289 584L288 583M333 583L334 584L333 583M436 583L437 584L436 583M481 583L482 584L481 583M289 584L290 585L289 584M330 586L333 584L330 586M437 584L438 585L437 584M480 584L481 585L480 584M290.667 585.333L291.333 585.667L290.667 585.333M438.667 585.333L439.333 585.667L438.667 585.333M478.667 585.333L479.333 585.667L478.667 585.333M292 586L293 587L292 586M329 586L330 587L329 586M440 586L441 587L440 586M477 586L478 587L477 586M293 587L294 588L293 587M328 587L329 588L328 587M441 587L442 588L441 587M476 587L477 588L476 587M294.667 588.333L295.333 588.667L294.667 588.333M326 588L327 589L326 588M442.667 588.333L443.333 588.667L442.667 588.333M474.667 588.333L475.333 588.667L474.667 588.333M296.667 589.333L297.333 589.667L296.667 589.333M324.667 589.333L325.333 589.667L324.667 589.333M444.667 589.333L445.333 589.667L444.667 589.333M472.667 589.333L473.333 589.667L472.667 589.333M298.667 590.333L299.333 590.667L298.667 590.333M321 590L321 591L324 591L321 590M446.667 590.333L447.333 590.667L446.667 590.333M470.667 590.333L471.333 590.667L470.667 590.333M301.667 591.333L302.333 591.667L301.667 591.333M319.667 591.333L320.333 591.667L319.667 591.333M449.667 591.333L450.333 591.667L449.667 591.333M467.667 591.333L468.333 591.667L467.667 591.333M305 592L305 593L317 593L305 592M453 592L453 593L464 593L453 592z"/>
</svg>
