<?xml version="1.0" standalone="yes"?>
<svg xmlns="http://www.w3.org/2000/svg" width="750" height="349">
<path style="fill:#ffffff; stroke:none;" d="M0 0L0 349L750 349L750 0L0 0z"/>
<path style="fill:#f8d8b1; stroke:none;" d="M378 113C372.949 113.827 372.591 116.466 374 121C361.467 123.63 360 132.651 360 144L394 144C396.61 135.166 393.16 127.245 385 123L385 122C388.436 119.522 388.436 116.478 385 114C387.826 102.126 378.281 101.36 378 113M339 108L334 132L335 132L339 128L342 134L349 128L353 131L354 135C355.216 127.901 345.905 108.551 339 108M288 115L288 121L311 119C307.554 129.59 296.194 155.133 312.004 161.258C315.341 162.551 319.488 162 323 162C322.433 166.098 321.747 168.954 318 171L318 172L321 173L316 191L334 189C331.013 199.625 328.686 199.833 319 204L319 205L368 202C365.421 219.129 344.306 210.709 336 222C368.217 215.752 400.718 215.985 433 222L454.011 173L460.211 155.303L451 149L433 148.08L398 144C398.868 134.122 408.824 120.693 418 132L419 130L420 130L419 134L421 133L421 134L420 138L421 138L421 135L422 135L421 143L422 143L423 140L422 145L423 146C429.98 136.826 437.757 128.892 449 139L450 139L447 136C455.66 119.686 435.625 127.632 429 128L429 127L440 123L440 122C434.953 120.815 432.751 121.57 429 125L437 115C431.243 116.046 428.694 118.993 426 124L418 119L424 126C417.919 121.381 412.154 119.557 405 123L406 127C399.7 130.221 396.129 138.178 398 145C378.383 145.013 358.298 147.945 339 151.424C332.556 152.586 321.531 156.907 316.514 150.852C308.723 141.451 317.699 123.035 320 113L319 112L288 115z"/>
<path style="fill:#ffffff; stroke:none;" d="M408 126L409 127L408 126M415 126L419 130L415 126M424 126L426 128L426 126L424 126z"/>
<path style="fill:#feb0ab; stroke:none;" d="M398 144C410.953 145.904 424.011 146.752 437 148.92C440.222 149.457 448.325 152.635 450.243 148.678C455.095 138.67 441.69 132.921 434 134.232C427.73 135.302 425.654 141.049 423 146C421.124 140.89 420.805 133.267 416.606 129.448C406.731 120.468 398.369 135.954 398 144z"/>
<path style="fill:#d5b2d5; stroke:none;" d="M337 128L328 149L357 144L353 131L350 129L344 134L342 134L339 128L337 128z"/>
<path style="fill:#bab8ba; stroke:none;" d="M348 128L349 129L348 128M336 129L337 130L336 129M335 130L336 131L335 130z"/>
<path style="fill:#ffffff; stroke:none;" d="M419 130L419 133L420 133L419 130M434 132L434 133L440 133L434 132z"/>
<path style="fill:#f8d8b1; stroke:none;" d="M333 133L334 134L333 133z"/>
<path style="fill:#bab8ba; stroke:none;" d="M343 133L344 134L343 133z"/>
<path style="fill:#ffffff; stroke:none;" d="M420.333 133.667L420.667 134.333L420.333 133.667M442 133L443 134L442 133M421 135L421 139L422 139L421 135z"/>
<path style="fill:#f8d8b1; stroke:none;" d="M332 136L333 137L332 136M355.333 136.667L355.667 137.333L355.333 136.667z"/>
<path style="fill:#ffffff; stroke:none;" d="M426 136L427 137L426 136z"/>
<path style="fill:#f8d8b1; stroke:none;" d="M331.333 138.667L331.667 139.333L331.333 138.667M356 138L356 141L357 141L356 138z"/>
<path style="fill:#ffffff; stroke:none;" d="M425 138L424 141L425 141L425 138M422 140L424 144L422 140z"/>
<path style="fill:#f8d8b1; stroke:none;" d="M450 140L450 144L451 144L450 140M330 141L331 142L330 141M357.333 142.667L357.667 143.333L357.333 142.667M329 143L330 144L329 143M351 144L351 145L356 145L351 144M328 145L329 146L328 145M344 145L344 146L350 146L344 145M340 146L340 147L344 147L340 146M327 147L330 150L330 149L327 147M335 147L335 148L338 148L335 147M330 148L330 149L334 149L330 148z"/>
<path style="fill:#ffffff; stroke:none;" d="M365 163C373.072 165.039 379.786 162.833 380 154C371.435 154 367.145 153.768 365 163M387 163C395.835 163 403.113 164.745 404 154C395.241 154 387.942 152.305 387 163M345 166C354.567 165.589 359.129 164.891 361 155C352.135 155.183 345.874 156.072 345 166M410 163L425 165C429.891 153.344 412.631 152.095 410 163M326 169C334.568 168.632 338.917 167.182 339 158C331.463 159.56 327.819 161.186 326 169M433 165C439.059 166.915 443.142 167.282 446 161C439.695 158.323 435.289 157.804 433 165M359 181C369.78 183.723 374.459 179.796 377 170C365.873 166.711 361.966 170.752 359 181M384 169L382 180L398 180L400 170L384 169M339 184C351.762 183.894 355.565 182.559 358 170C345.717 170 340.808 170.588 339 184M320 188C332.539 187.002 336.002 183.539 337 171C325.372 171.008 321.03 176.274 320 188M407 171L405 180L421 182L423 172L407 171M431 173L428 182C435.138 184.106 437.488 181.44 440 175L431 173M380 186L377 195C385.306 195 393.232 197.339 396 188L380 186M334 200C344.194 199.194 353.477 198.96 354 187C342.396 187.032 335.85 187.428 334 200M357 187L355 197C363.548 196.325 370.631 196.899 372 187L357 187M402 188L401 196C409.395 196.006 417.517 199.69 419 189L402 188M424 198C429.418 198.279 431.161 196.259 432 191C426.177 190.098 424.516 192.328 424 198M375 201L373 210L391 208L392 202L375 201M397 208L415 208C412.803 201.376 398.637 200.497 397 208M420 207L420 209L426 207L420 207z"/>
<path style="fill:#f8d8b1; stroke:none;" d="M350 226L350 227C356.168 227.056 359.989 228.336 363 234C363.968 226.763 355.249 226.015 350 226M393 233L394 233C399.444 225.695 404.876 226.775 412 231C406.409 223.947 396.941 224.753 393 233M348 227L344 232L345 232L349 228L348 227z"/>
<path style="fill:#bab8ba; stroke:none;" d="M349.094 227.858C338.459 232.571 345.736 250.469 356.995 245.987C369.861 240.865 361.557 222.335 349.094 227.858M399.015 227.742C387.693 232.188 394.827 250.118 405.996 246.092C418.637 241.535 411.53 222.828 399.015 227.742z"/>
<path style="fill:#f8d8b1; stroke:none;" d="M412 232L413 233L412 232M343 233L343 240L344 240L343 233M392 234L392 239L393 239L392 234M413 235L413 238L414 238L413 235M363.333 239.667L363.667 240.333L363.333 239.667M393.333 240.667L393.667 241.333L393.333 240.667M412.333 240.667L412.667 241.333L412.333 240.667M344 241L345 242L344 241M362 242L363 243L362 242M394 242L395 243L394 242M411 242L412 243L411 242M345 243L346 244L345 243M361 243L362 244L361 243M395 243L395 245L397 245L395 243M410 243L411 244L410 243M346 244L347 245L346 244M360 244L361 245L360 244M409 244L410 245L409 244M347.667 245.333L348.333 245.667L347.667 245.333M358.667 245.333L359.333 245.667L358.667 245.333M397 245L398 246L397 245M408 245L409 246L408 245M349.667 246.333L350.333 246.667L349.667 246.333M356.667 246.333L357.333 246.667L356.667 246.333M398 246L398 247L401 247L398 246M405 246L405 247L408 247L405 246M402 247L403 248L402 247z"/>
</svg>
