<?xml version="1.0" standalone="no"?>
<!DOCTYPE svg PUBLIC "-//W3C//DTD SVG 20010904//EN"
 "http://www.w3.org/TR/2001/REC-SVG-20010904/DTD/svg10.dtd">
<svg version="1.0" xmlns="http://www.w3.org/2000/svg"
 width="750.000000pt" height="197.000000pt" viewBox="0 0 750.000000 197.000000"
 preserveAspectRatio="xMidYMid meet">
<metadata>
Created by potrace 1.16, written by Peter Selinger 2001-2019
</metadata>
<g transform="translate(0.000000,197.000000) scale(0.100000,-0.100000)"
fill="#000000" stroke="none">
<path d="M5148 1413 c7 -3 16 -2 19 1 4 3 -2 6 -13 5 -11 0 -14 -3 -6 -6z"/>
<path d="M578 1363 c7 -3 16 -2 19 1 4 3 -2 6 -13 5 -11 0 -14 -3 -6 -6z"/>
<path d="M661 894 c0 -11 3 -14 6 -6 3 7 2 16 -1 19 -3 4 -6 -2 -5 -13z"/>
<path d="M6051 774 c0 -11 3 -14 6 -6 3 7 2 16 -1 19 -3 4 -6 -2 -5 -13z"/>
<path d="M540 681 c0 -6 4 -13 10 -16 6 -3 7 1 4 9 -7 18 -14 21 -14 7z"/>
<path d="M5290 681 c0 -6 4 -13 10 -16 6 -3 7 1 4 9 -7 18 -14 21 -14 7z"/>
<path d="M941 663 c-1 -12 4 -25 9 -28 12 -7 12 2 0 30 -8 19 -9 19 -9 -2z"/>
<path d="M3720 650 l-25 -8 27 -1 c15 -1 30 4 33 9 7 11 0 11 -35 0z"/>
<path d="M5818 637 c-3 -19 -2 -25 4 -19 6 6 8 18 6 28 -3 14 -5 12 -10 -9z"/>
<path d="M588 643 c7 -3 16 -2 19 1 4 3 -2 6 -13 5 -11 0 -14 -3 -6 -6z"/>
<path d="M1308 637 c-9 -9 -19 -13 -23 -9 -5 4 -5 1 0 -6 5 -10 10 -11 18 -3
6 6 16 7 28 1 12 -7 20 -6 25 2 4 7 4 10 -1 6 -4 -4 -13 -1 -20 8 -10 15 -13
15 -27 1z"/>
<path d="M1360 640 c8 -5 20 -10 25 -10 6 0 3 5 -5 10 -8 5 -19 10 -25 10 -5
0 -3 -5 5 -10z"/>
<path d="M1720 640 c-9 -6 -10 -10 -3 -10 6 0 15 5 18 10 8 12 4 12 -15 0z"/>
<path d="M1785 640 c3 -5 8 -10 11 -10 2 0 4 5 4 10 0 6 -5 10 -11 10 -5 0 -7
-4 -4 -10z"/>
<path d="M3675 640 c-3 -5 -1 -10 4 -10 6 0 11 5 11 10 0 6 -2 10 -4 10 -3 0
-8 -4 -11 -10z"/>
<path d="M3808 643 c6 -2 18 -2 25 0 6 3 1 5 -13 5 -14 0 -19 -2 -12 -5z"/>
<path d="M3150 636 c0 -2 7 -7 16 -10 8 -3 12 -2 9 4 -6 10 -25 14 -25 6z"/>
<path d="M4574 625 c8 -8 23 -15 33 -15 13 0 10 4 -11 15 -36 19 -41 19 -22 0z"/>
<path d="M6431 624 c0 -11 3 -14 6 -6 3 7 2 16 -1 19 -3 4 -6 -2 -5 -13z"/>
<path d="M6908 633 c7 -3 16 -2 19 1 4 3 -2 6 -13 5 -11 0 -14 -3 -6 -6z"/>
<path d="M7151 633 c-1 -6 -4 -20 -7 -30 -5 -17 -5 -17 6 0 6 10 9 23 6 30 -3
9 -5 9 -5 0z"/>
<path d="M7175 629 c-4 -6 -5 -12 -2 -15 2 -3 7 2 10 11 7 17 1 20 -8 4z"/>
<path d="M3635 620 c-3 -5 -1 -10 4 -10 6 0 11 5 11 10 0 6 -2 10 -4 10 -3 0
-8 -4 -11 -10z"/>
<path d="M5260 620 c0 -5 7 -7 15 -4 8 4 15 8 15 10 0 2 -7 4 -15 4 -8 0 -15
-4 -15 -10z"/>
<path d="M3528 613 c7 -3 16 -2 19 1 4 3 -2 6 -13 5 -11 0 -14 -3 -6 -6z"/>
<path d="M3768 603 c7 -3 16 -2 19 1 4 3 -2 6 -13 5 -11 0 -14 -3 -6 -6z"/>
<path d="M4399 599 c-11 -8 -10 -9 6 -7 11 2 20 -2 20 -9 0 -20 11 -23 12 -3
2 22 -18 32 -38 19z"/>
<path d="M4453 591 c0 -10 6 -18 12 -18 16 0 15 25 -1 31 -8 3 -12 -2 -11 -13z"/>
<path d="M595 590 c-9 -14 1 -27 25 -33 11 -3 18 -1 14 4 -3 5 -12 9 -20 9
-17 0 -19 16 -1 23 9 4 9 6 0 6 -6 1 -15 -3 -18 -9z"/>
<path d="M1325 590 c3 -5 8 -10 11 -10 2 0 4 5 4 10 0 6 -5 10 -11 10 -5 0 -7
-4 -4 -10z"/>
<path d="M4201 584 c0 -11 3 -14 6 -6 3 7 2 16 -1 19 -3 4 -6 -2 -5 -13z"/>
<path d="M7121 584 c0 -11 3 -14 6 -6 3 7 2 16 -1 19 -3 4 -6 -2 -5 -13z"/>
<path d="M951 574 c0 -11 3 -14 6 -6 3 7 2 16 -1 19 -3 4 -6 -2 -5 -13z"/>
<path d="M1390 575 c0 -16 16 -20 24 -6 3 5 -1 11 -9 15 -9 3 -15 0 -15 -9z"/>
<path d="M3280 580 c0 -5 7 -7 15 -4 8 4 15 8 15 10 0 2 -7 4 -15 4 -8 0 -15
-4 -15 -10z"/>
<path d="M3680 580 c0 -5 5 -10 10 -10 6 0 10 5 10 10 0 6 -4 10 -10 10 -5 0
-10 -4 -10 -10z"/>
<path d="M3740 581 c0 -9 24 -21 43 -21 6 0 2 7 -9 15 -22 17 -34 19 -34 6z"/>
<path d="M4025 581 l-30 -7 34 -7 c19 -4 36 -5 39 -2 3 3 0 5 -7 5 -7 0 -9 5
-6 10 3 6 5 9 3 9 -2 -1 -16 -4 -33 -8z"/>
<path d="M4220 581 c0 -6 4 -13 10 -16 6 -3 7 1 4 9 -7 18 -14 21 -14 7z"/>
<path d="M4335 577 c-14 -11 -15 -16 -5 -22 9 -6 11 -4 5 5 -6 10 -3 12 13 8
15 -4 19 -2 15 8 -6 17 -5 17 -28 1z"/>
<path d="M5086 583 c-12 -12 -5 -23 14 -23 11 0 20 4 20 9 0 11 -26 22 -34 14z"/>
<path d="M5478 583 c7 -3 16 -2 19 1 4 3 -2 6 -13 5 -11 0 -14 -3 -6 -6z"/>
<path d="M5605 580 c3 -5 11 -10 16 -10 6 0 7 5 4 10 -3 6 -11 10 -16 10 -6 0
-7 -4 -4 -10z"/>
<path d="M5768 583 c7 -3 16 -2 19 1 4 3 -2 6 -13 5 -11 0 -14 -3 -6 -6z"/>
<path d="M6435 580 c3 -5 8 -10 11 -10 2 0 4 5 4 10 0 6 -5 10 -11 10 -5 0 -7
-4 -4 -10z"/>
<path d="M7090 580 c0 -5 5 -10 11 -10 5 0 7 5 4 10 -3 6 -8 10 -11 10 -2 0
-4 -4 -4 -10z"/>
<path d="M1144 568 c-3 -4 4 -8 15 -8 12 0 21 4 21 8 0 5 -7 9 -15 9 -9 0 -18
-4 -21 -9z"/>
<path d="M1260 574 c0 -3 6 -12 14 -19 17 -17 30 -7 15 12 -12 13 -29 18 -29
7z"/>
<path d="M1470 570 c0 -5 5 -10 10 -10 6 0 10 5 10 10 0 6 -4 10 -10 10 -5 0
-10 -4 -10 -10z"/>
<path d="M1911 564 c0 -11 3 -14 6 -6 3 7 2 16 -1 19 -3 4 -6 -2 -5 -13z"/>
<path d="M2795 570 c3 -5 18 -10 33 -10 21 0 24 2 12 10 -20 13 -53 13 -45 0z"/>
<path d="M3080 570 c0 -5 7 -10 15 -10 8 0 15 5 15 10 0 6 -7 10 -15 10 -8 0
-15 -4 -15 -10z"/>
<path d="M3440 570 c0 -5 14 -10 31 -10 17 0 28 4 24 10 -3 6 -17 10 -31 10
-13 0 -24 -4 -24 -10z"/>
<path d="M3825 570 c-3 -5 -1 -10 4 -10 6 0 11 5 11 10 0 6 -2 10 -4 10 -3 0
-8 -4 -11 -10z"/>
<path d="M4495 570 c-4 -6 5 -10 19 -10 14 0 26 5 26 10 0 6 -9 10 -19 10 -11
0 -23 -4 -26 -10z"/>
<path d="M4817 573 c-3 -5 9 -9 25 -10 38 -3 47 -11 28 -23 -8 -6 -10 -10 -4
-10 6 0 17 6 23 13 8 11 5 16 -15 25 -29 14 -51 15 -57 5z"/>
<path d="M5920 569 c0 -5 5 -7 10 -4 6 3 10 8 10 11 0 2 -4 4 -10 4 -5 0 -10
-5 -10 -11z"/>
<path d="M6020 569 c0 -5 5 -7 10 -4 6 3 10 8 10 11 0 2 -4 4 -10 4 -5 0 -10
-5 -10 -11z"/>
<path d="M1660 566 c0 -2 7 -9 15 -16 9 -7 15 -8 15 -2 0 5 -7 12 -15 16 -8 3
-15 4 -15 2z"/>
<path d="M3578 563 c7 -3 16 -2 19 1 4 3 -2 6 -13 5 -11 0 -14 -3 -6 -6z"/>
<path d="M5635 560 c-3 -5 -1 -10 4 -10 6 0 11 5 11 10 0 6 -2 10 -4 10 -3 0
-8 -4 -11 -10z"/>
<path d="M6640 556 c0 -9 5 -16 10 -16 6 0 10 4 10 9 0 6 -4 13 -10 16 -5 3
-10 -1 -10 -9z"/>
<path d="M6759 559 c16 -6 28 -6 35 1 7 7 -1 10 -24 9 -33 0 -34 -1 -11 -10z"/>
<path d="M6825 560 c-3 -6 1 -7 9 -4 18 7 21 14 7 14 -6 0 -13 -4 -16 -10z"/>
<path d="M1756 543 c-6 -14 -5 -15 5 -6 7 7 10 15 7 18 -3 3 -9 -2 -12 -12z"/>
<path d="M3008 553 c6 -2 18 -2 25 0 6 3 1 5 -13 5 -14 0 -19 -2 -12 -5z"/>
<path d="M4099 546 c11 -5 31 -4 48 1 25 9 23 10 -20 9 -35 -1 -42 -3 -28 -10z"/>
<path d="M5450 550 c-13 -8 -13 -10 2 -10 9 0 20 5 23 10 8 13 -5 13 -25 0z"/>
<path d="M5580 549 c0 -5 5 -7 10 -4 6 3 10 8 10 11 0 2 -4 4 -10 4 -5 0 -10
-5 -10 -11z"/>
<path d="M6165 550 c3 -5 8 -10 11 -10 2 0 4 5 4 10 0 6 -5 10 -11 10 -5 0 -7
-4 -4 -10z"/>
<path d="M7095 550 c-8 -13 5 -13 25 0 13 8 13 10 -2 10 -9 0 -20 -4 -23 -10z"/>
<path d="M873 537 c5 -14 0 -17 -26 -18 -30 -2 -30 -2 -5 -6 15 -2 34 -1 42 4
12 7 12 10 -2 23 -14 13 -15 12 -9 -3z"/>
<path d="M1448 543 c7 -3 16 -2 19 1 4 3 -2 6 -13 5 -11 0 -14 -3 -6 -6z"/>
<path d="M1490 546 c0 -9 30 -14 35 -6 4 6 -3 10 -14 10 -12 0 -21 -2 -21 -4z"/>
<path d="M2350 540 c0 -5 5 -10 10 -10 6 0 10 5 10 10 0 6 -4 10 -10 10 -5 0
-10 -4 -10 -10z"/>
<path d="M610 529 c0 -5 5 -7 10 -4 6 3 10 8 10 11 0 2 -4 4 -10 4 -5 0 -10
-5 -10 -11z"/>
<path d="M2668 533 c7 -3 16 -2 19 1 4 3 -2 6 -13 5 -11 0 -14 -3 -6 -6z"/>
<path d="M4340 531 c0 -7 -4 -10 -8 -7 -5 3 -9 -2 -9 -10 0 -13 2 -13 16 0 8
9 12 19 8 22 -4 4 -7 2 -7 -5z"/>
<path d="M7058 533 c7 -3 16 -2 19 1 4 3 -2 6 -13 5 -11 0 -14 -3 -6 -6z"/>
<path d="M640 520 c-12 -8 -10 -10 8 -10 13 0 20 4 17 10 -7 12 -6 12 -25 0z"/>
<path d="M720 520 c0 -5 5 -10 11 -10 5 0 7 5 4 10 -3 6 -8 10 -11 10 -2 0 -4
-4 -4 -10z"/>
<path d="M1016 521 c-19 -7 -19 -8 0 -13 13 -3 21 0 21 8 0 8 -1 14 -1 13 -1
0 -10 -4 -20 -8z"/>
<path d="M1994 519 c-8 -13 13 -36 23 -24 5 4 2 10 -5 12 -6 3 -10 9 -6 14 3
5 3 9 0 9 -3 0 -8 -5 -12 -11z"/>
<path d="M2025 520 c3 -5 8 -10 11 -10 2 0 4 5 4 10 0 6 -5 10 -11 10 -5 0 -7
-4 -4 -10z"/>
<path d="M3090 520 c0 -5 5 -10 10 -10 6 0 10 5 10 10 0 6 -4 10 -10 10 -5 0
-10 -4 -10 -10z"/>
<path d="M3685 520 c-3 -5 -3 -10 2 -10 4 0 1 -5 -7 -10 -25 -16 3 -11 30 6
25 15 25 15 1 8 -16 -4 -21 -3 -17 5 4 6 5 11 2 11 -3 0 -8 -4 -11 -10z"/>
<path d="M6953 513 c0 -9 4 -10 14 -2 7 6 13 12 13 14 0 1 -6 2 -13 2 -8 0
-14 -6 -14 -14z"/>
<path d="M1770 511 c0 -5 9 -7 20 -4 11 3 20 7 20 9 0 2 -9 4 -20 4 -11 0 -20
-4 -20 -9z"/>
<path d="M3425 510 c3 -5 8 -10 11 -10 2 0 4 5 4 10 0 6 -5 10 -11 10 -5 0 -7
-4 -4 -10z"/>
<path d="M4066 504 c13 -11 15 -17 7 -20 -15 -6 -17 -24 -4 -24 13 0 21 27 15
45 -4 8 -13 15 -22 15 -13 0 -12 -3 4 -16z"/>
<path d="M4548 513 c6 -2 18 -2 25 0 6 3 1 5 -13 5 -14 0 -19 -2 -12 -5z"/>
<path d="M4615 510 c3 -5 8 -10 11 -10 2 0 4 5 4 10 0 6 -5 10 -11 10 -5 0 -7
-4 -4 -10z"/>
<path d="M5067 500 c-3 -11 0 -23 6 -27 7 -3 9 -3 5 2 -4 4 -3 16 3 26 5 11 6
19 1 19 -6 0 -12 -9 -15 -20z"/>
<path d="M5230 516 c0 -2 13 -6 29 -8 17 -2 28 -1 25 4 -5 8 -54 12 -54 4z"/>
<path d="M5360 510 c0 -6 11 -8 28 -4 39 10 40 14 4 14 -18 0 -32 -5 -32 -10z"/>
<path d="M6008 513 c6 -2 18 -2 25 0 6 3 1 5 -13 5 -14 0 -19 -2 -12 -5z"/>
<path d="M6058 513 c7 -3 16 -2 19 1 4 3 -2 6 -13 5 -11 0 -14 -3 -6 -6z"/>
<path d="M6472 500 c0 -14 2 -19 5 -12 2 6 2 18 0 25 -3 6 -5 1 -5 -13z"/>
<path d="M6848 513 c6 -2 18 -2 25 0 6 3 1 5 -13 5 -14 0 -19 -2 -12 -5z"/>
<path d="M937 499 c7 -7 15 -10 18 -7 3 3 -2 9 -12 12 -14 6 -15 5 -6 -5z"/>
<path d="M1930 500 c8 -5 22 -9 30 -9 10 0 8 3 -5 9 -27 12 -43 12 -25 0z"/>
<path d="M3380 500 c0 -5 5 -10 11 -10 5 0 7 5 4 10 -3 6 -8 10 -11 10 -2 0
-4 -4 -4 -10z"/>
<path d="M6441 494 c0 -11 3 -14 6 -6 3 7 2 16 -1 19 -3 4 -6 -2 -5 -13z"/>
<path d="M655 490 c3 -5 11 -10 16 -10 6 0 7 5 4 10 -3 6 -11 10 -16 10 -6 0
-7 -4 -4 -10z"/>
<path d="M797 480 c6 -21 -20 -29 -32 -10 -3 6 -18 10 -33 10 -26 -1 -26 -1 7
-15 22 -10 47 -13 75 -8 37 6 38 7 16 14 -14 4 -18 8 -10 8 13 1 13 2 0 11
-23 15 -29 12 -23 -10z"/>
<path d="M1292 495 c4 -4 3 -14 -2 -20 -8 -9 -4 -11 15 -7 25 4 46 22 26 22
-5 0 -18 3 -28 7 -10 3 -15 3 -11 -2z"/>
<path d="M2766 484 c-9 -8 -16 -20 -16 -26 0 -6 1 -9 3 -7 1 2 11 14 21 27 22
25 16 30 -8 6z"/>
<path d="M2810 490 c8 -5 22 -9 30 -9 10 0 8 3 -5 9 -27 12 -43 12 -25 0z"/>
<path d="M3470 490 c0 -5 5 -10 10 -10 6 0 10 5 10 10 0 6 -4 10 -10 10 -5 0
-10 -4 -10 -10z"/>
<path d="M3920 486 c0 -9 8 -12 25 -8 16 3 33 -2 45 -13 10 -9 25 -15 32 -12
8 4 7 6 -4 6 -21 1 -24 17 -5 24 6 2 8 8 4 13 -4 5 -11 3 -16 -4 -5 -9 -16 -9
-41 -2 -43 12 -40 13 -40 -4z"/>
<path d="M4670 490 c-8 -5 -10 -10 -5 -10 6 0 17 5 25 10 8 5 11 10 5 10 -5 0
-17 -5 -25 -10z"/>
<path d="M5920 490 c0 -6 -12 -8 -27 -5 -16 3 -21 2 -13 -1 8 -4 22 -13 31
-21 15 -12 17 -11 17 12 0 14 -2 25 -4 25 -2 0 -4 -5 -4 -10z"/>
<path d="M6166 485 c-9 -26 -7 -32 5 -12 6 10 9 21 6 23 -2 3 -7 -2 -11 -11z"/>
<path d="M6617 489 c-10 -6 -28 -9 -38 -6 -16 4 -18 3 -9 -9 10 -11 16 -11 40
1 15 8 31 11 35 7 5 -4 5 -1 1 6 -8 14 -6 14 -29 1z"/>
<path d="M1052 481 c-11 -6 -10 -10 4 -15 20 -8 32 0 18 14 -5 5 -15 5 -22 1z"/>
<path d="M1530 480 c0 -5 7 -10 15 -10 8 0 15 5 15 10 0 6 -7 10 -15 10 -8 0
-15 -4 -15 -10z"/>
<path d="M1810 480 l-25 -8 28 -1 c15 -1 27 4 27 9 0 6 -1 10 -2 9 -2 -1 -14
-5 -28 -9z"/>
<path d="M2330 470 c-9 -16 -8 -18 5 -14 8 4 15 12 15 20 0 20 -7 17 -20 -6z"/>
<path d="M3535 481 c-6 -11 9 -23 19 -14 9 9 7 23 -3 23 -6 0 -12 -4 -16 -9z"/>
<path d="M3860 486 c0 -2 7 -7 16 -10 8 -3 12 -2 9 4 -6 10 -25 14 -25 6z"/>
<path d="M4260 480 c0 -5 5 -10 10 -10 6 0 10 5 10 10 0 6 -4 10 -10 10 -5 0
-10 -4 -10 -10z"/>
<path d="M4928 483 c-10 -2 -18 -11 -18 -19 0 -18 10 -17 34 1 10 8 23 12 29
8 6 -3 7 -1 3 5 -7 12 -17 13 -48 5z"/>
<path d="M5135 480 c-18 -8 -17 -9 8 -9 15 -1 27 4 27 9 0 12 -8 12 -35 0z"/>
<path d="M5210 481 c0 -15 27 -20 57 -10 28 9 28 9 -4 4 -18 -2 -33 0 -33 5 0
6 -4 10 -10 10 -5 0 -10 -4 -10 -9z"/>
<path d="M5340 480 c0 -5 5 -10 11 -10 5 0 7 5 4 10 -3 6 -8 10 -11 10 -2 0
-4 -4 -4 -10z"/>
<path d="M5381 481 c-10 -6 -9 -10 4 -15 25 -9 55 -7 55 4 0 5 -7 7 -16 3 -9
-3 -19 -1 -23 5 -4 6 -12 7 -20 3z"/>
<path d="M5962 483 c-6 -2 -10 -9 -7 -13 7 -11 35 -2 35 11 0 10 -8 10 -28 2z"/>
<path d="M6758 477 c31 -7 46 -7 54 1 9 9 -1 12 -42 11 l-55 -1 43 -11z"/>
<path d="M1430 470 c0 -5 5 -10 11 -10 5 0 7 -5 4 -10 -5 -8 -12 -7 -23 2 -13
9 -12 7 2 -9 14 -18 23 -20 37 -12 23 12 23 13 3 33 -18 18 -34 21 -34 6z"/>
<path d="M2630 471 c0 -5 9 -7 20 -4 11 3 20 7 20 9 0 2 -9 4 -20 4 -11 0 -20
-4 -20 -9z"/>
<path d="M2721 464 c0 -11 3 -14 6 -6 3 7 2 16 -1 19 -3 4 -6 -2 -5 -13z"/>
<path d="M3088 473 c7 -3 16 -2 19 1 4 3 -2 6 -13 5 -11 0 -14 -3 -6 -6z"/>
<path d="M3348 473 c6 -2 18 -2 25 0 6 3 1 5 -13 5 -14 0 -19 -2 -12 -5z"/>
<path d="M3648 473 c7 -3 16 -2 19 1 4 3 -2 6 -13 5 -11 0 -14 -3 -6 -6z"/>
<path d="M4705 470 c3 -5 8 -10 11 -10 2 0 4 5 4 10 0 6 -5 10 -11 10 -5 0 -7
-4 -4 -10z"/>
<path d="M5680 470 c0 -5 4 -10 9 -10 6 0 13 5 16 10 3 6 -1 10 -9 10 -9 0
-16 -4 -16 -10z"/>
<path d="M2876 459 c3 -5 19 -9 36 -9 17 0 28 3 25 6 -10 11 -67 13 -61 3z"/>
<path d="M4230 460 c-13 -8 -12 -10 3 -10 9 0 17 5 17 10 0 12 -1 12 -20 0z"/>
<path d="M6041 463 c11 -2 15 -12 12 -27 -5 -25 11 -44 22 -26 3 5 1 10 -5 10
-8 0 -10 9 -6 25 5 21 3 25 -16 24 -15 -1 -17 -3 -7 -6z"/>
<path d="M6185 460 c3 -5 8 -10 11 -10 2 0 4 5 4 10 0 6 -5 10 -11 10 -5 0 -7
-4 -4 -10z"/>
<path d="M4158 453 c7 -3 16 -2 19 1 4 3 -2 6 -13 5 -11 0 -14 -3 -6 -6z"/>
<path d="M5533 453 c9 -2 25 -2 35 0 9 3 1 5 -18 5 -19 0 -27 -2 -17 -5z"/>
<path d="M1568 443 c6 -2 18 -2 25 0 6 3 1 5 -13 5 -14 0 -19 -2 -12 -5z"/>
<path d="M1625 440 c-3 -5 -1 -10 4 -10 6 0 11 5 11 10 0 6 -2 10 -4 10 -3 0
-8 -4 -11 -10z"/>
<path d="M2260 434 c0 -8 5 -14 10 -14 6 0 10 -10 11 -22 0 -22 1 -22 9 -3 14
32 11 42 -10 48 -13 3 -20 0 -20 -9z"/>
<path d="M2634 425 c-9 -19 -9 -27 1 -35 16 -13 24 6 16 37 l-6 22 -11 -24z"/>
<path d="M4050 440 c-8 -5 -10 -10 -5 -10 6 0 17 5 25 10 8 5 11 10 5 10 -5 0
-17 -5 -25 -10z"/>
<path d="M5695 440 c3 -5 8 -10 11 -10 2 0 4 5 4 10 0 6 -5 10 -11 10 -5 0 -7
-4 -4 -10z"/>
<path d="M6488 443 c7 -3 16 -2 19 1 4 3 -2 6 -13 5 -11 0 -14 -3 -6 -6z"/>
<path d="M6530 440 c0 -5 5 -10 10 -10 6 0 10 5 10 10 0 6 -4 10 -10 10 -5 0
-10 -4 -10 -10z"/>
<path d="M1475 423 c-16 -13 -17 -15 -2 -10 9 4 17 2 17 -3 0 -5 7 -6 17 -3
12 5 14 3 8 -8 -6 -11 -5 -11 5 -2 16 15 4 34 -17 26 -11 -4 -14 -3 -9 5 10
16 5 15 -19 -5z"/>
<path d="M1717 429 c-26 -15 -85 -21 -105 -10 -11 6 -24 6 -33 0 -10 -6 -6 -9
16 -10 26 0 27 -2 10 -9 -14 -6 -8 -7 20 -5 22 2 40 4 40 5 0 1 9 3 21 4 11 1
31 10 44 19 27 19 16 23 -13 6z"/>
<path d="M4188 433 c7 -3 16 -2 19 1 4 3 -2 6 -13 5 -11 0 -14 -3 -6 -6z"/>
<path d="M6190 430 c0 -5 7 -7 15 -4 8 4 15 8 15 10 0 2 -7 4 -15 4 -8 0 -15
-4 -15 -10z"/>
<path d="M2370 417 c-21 -17 -22 -47 0 -47 13 0 17 7 16 30 0 17 -1 30 -1 30
0 0 -7 -6 -15 -13z"/>
<path d="M6100 420 c0 -5 11 -10 25 -10 14 0 25 5 25 10 0 6 -11 10 -25 10
-14 0 -25 -4 -25 -10z"/>
<path d="M6160 414 c0 -8 5 -12 10 -9 6 4 8 11 5 16 -9 14 -15 11 -15 -7z"/>
<path d="M6420 415 c0 -9 6 -12 15 -9 8 4 12 10 9 15 -8 14 -24 10 -24 -6z"/>
<path d="M6491 414 c0 -11 3 -14 6 -6 3 7 2 16 -1 19 -3 4 -6 -2 -5 -13z"/>
<path d="M6510 388 c-1 -30 -2 -31 -14 -15 -11 14 -19 16 -40 7 -14 -5 -26 -7
-26 -4 0 3 -7 -1 -15 -10 -8 -8 -15 -19 -15 -24 0 -7 -11 -6 -29 1 -25 9 -27
13 -18 29 7 10 19 18 27 18 13 0 13 2 1 9 -9 6 -21 5 -32 -2 -13 -8 -15 -13
-6 -19 8 -5 4 -8 -11 -8 -13 0 -20 4 -17 10 3 6 1 10 -4 10 -6 0 -11 -4 -11
-10 0 -5 -5 -10 -11 -10 -5 0 -7 5 -4 10 8 12 -5 13 -24 1 -10 -6 -20 -3 -32
12 -10 12 -18 16 -19 10 0 -7 6 -13 13 -14 6 0 3 -4 -8 -9 -19 -8 -19 -9 3 -9
12 -1 22 -5 22 -11 0 -5 8 -9 18 -8 33 2 62 -2 62 -10 0 -7 -57 -32 -73 -32
-4 0 -28 19 -52 41 -34 32 -46 38 -50 26 -8 -18 -51 -19 -66 -1 -6 8 -16 14
-22 14 -5 0 2 -9 17 -21 15 -12 31 -17 38 -13 9 5 9 2 -1 -9 -12 -15 -11 -20
4 -37 10 -11 22 -17 26 -14 5 3 36 2 70 -2 36 -4 56 -10 48 -15 -9 -5 -5 -10
14 -14 31 -8 57 -1 57 16 0 6 -6 9 -13 6 -8 -3 -19 -2 -26 2 -15 10 100 21
130 14 16 -4 17 -8 7 -14 -7 -5 -8 -9 -2 -9 6 0 21 9 33 19 l23 20 -36 6 c-51
10 -36 23 24 21 46 -2 50 0 50 20 0 12 3 29 6 38 3 9 1 16 -5 16 -6 0 -11 -15
-11 -32z m-350 -49 c0 -5 -7 -9 -15 -9 -9 0 -12 -6 -8 -17 6 -15 5 -16 -8 -3
-14 12 -14 16 0 31 14 18 31 17 31 -2z"/>
<path d="M6185 399 c-4 -6 -5 -12 -2 -15 2 -3 7 2 10 11 7 17 1 20 -8 4z"/>
<path d="M2297 378 c-10 -10 -22 -16 -28 -12 -6 3 -5 -3 3 -15 l13 -21 7 21
c7 17 28 19 28 3 0 -3 -4 -2 -10 1 -5 3 -10 -1 -10 -9 0 -10 9 -16 25 -16 25
0 35 23 15 35 -6 4 -8 10 -5 15 11 17 -21 16 -38 -2z"/>
<path d="M2415 393 c32 -8 39 -20 14 -28 -12 -4 -27 -11 -33 -16 -6 -5 -22
-19 -36 -30 l-25 -21 32 6 c23 5 32 3 35 -7 2 -10 9 -12 23 -6 19 8 19 8 -2
15 -13 3 -23 8 -23 11 0 3 10 13 23 24 27 22 57 25 57 4 0 -9 9 -15 23 -15 12
0 32 -3 45 -6 19 -5 21 -3 15 12 -9 26 -34 43 -52 36 -7 -3 -21 3 -29 14 -12
16 -14 16 -9 2 8 -22 -11 -24 -19 -3 -4 9 -17 15 -33 14 -20 -1 -22 -2 -6 -6z"/>
<path d="M2564 378 c-3 -4 0 -8 6 -8 7 0 9 -8 5 -21 -6 -18 -5 -19 14 -7 28
17 28 47 0 45 -11 -1 -23 -5 -25 -9z"/>
<path d="M6378 373 c7 -3 16 -2 19 1 4 3 -2 6 -13 5 -11 0 -14 -3 -6 -6z"/>
<path d="M2628 364 c-4 -3 -4 -12 -1 -20 11 -28 -4 -45 -32 -34 -14 5 -25 6
-25 1 0 -4 -26 -4 -57 0 -65 9 -73 6 -68 -21 3 -17 -2 -20 -33 -21 -36 -1 -36
-1 -9 -9 16 -5 36 -6 44 -3 8 3 19 0 24 -8 5 -8 9 -9 9 -3 0 6 29 14 67 18 76
8 136 38 126 63 -5 12 -1 14 18 9 20 -6 21 -5 6 4 -21 13 -41 4 -33 -16 3 -8
-1 -14 -10 -14 -12 0 -13 4 -3 23 7 12 17 25 23 29 7 5 4 8 -6 8 -10 0 -18 -6
-18 -12 0 -10 -2 -10 -8 0 -5 7 -11 10 -14 6z m-118 -85 c0 -6 -7 -9 -15 -5
-8 3 -15 1 -15 -5 0 -6 -5 -7 -11 -3 -8 4 -7 9 2 15 19 12 39 11 39 -2z m50 2
c0 -6 -9 -9 -19 -8 -11 0 -17 5 -15 9 7 11 34 10 34 -1z m43 2 c-7 -2 -19 -2
-25 0 -7 3 -2 5 12 5 14 0 19 -2 13 -5z"/>
<path d="M2700 358 c0 -4 4 -8 9 -8 6 0 12 4 15 8 3 5 -1 9 -9 9 -8 0 -15 -4
-15 -9z"/>
<path d="M6385 290 c-19 -8 -19 -9 3 -9 12 -1 22 4 22 9 0 6 -1 10 -2 9 -2 0
-12 -4 -23 -9z"/>
<path d="M2355 280 c3 -5 8 -10 11 -10 2 0 4 5 4 10 0 6 -5 10 -11 10 -5 0 -7
-4 -4 -10z"/>
<path d="M6160 286 c0 -2 7 -7 16 -10 8 -3 12 -2 9 4 -6 10 -25 14 -25 6z"/>
<path d="M6345 277 c-4 -10 -5 -21 -1 -24 10 -10 18 4 13 24 -4 17 -4 17 -12
0z"/>
<path d="M6220 260 c0 -5 5 -10 11 -10 5 0 7 5 4 10 -3 6 -8 10 -11 10 -2 0
-4 -4 -4 -10z"/>
</g>
</svg>
